# xmcd
#
# Track frame offsets: 
#        150
#        19152
#        33765
#        46262
#        62092
#        80746
#        99904
#        112989
#        131681
#        150897
#        166412
#        181552
#        200939
#        221805
#        239408
#
# Disc length: 3368 seconds
#
# Revision: 0
# Processed by: cddbd v1.5.2PL0 Copyright (c) Steve Scherf et al.
# Submitted via: ExactAudioCopyFreeDBPlugin 1.0
#
DISCID=c10d260f
DTITLE=Various Artist - The Best of WUNC's Back Porch Music, Vol 17: Red Hot 
DTITLE=and Rarin' To Go
DYEAR=2014
DGENRE=Bluegrass
TTITLE0=Spring Creek - Tangled In The Pines
TTITLE1=Frank Hutchison - The Miner's Blues
TTITLE2=Grayson and Whitter - Short Life Of Trouble
TTITLE3=Adam Hurt - Cherokee Shuffle
TTITLE4=I Draw Slow - Mama Don't Cry
TTITLE5=Lightnin' Wells - Shake'Em On Down
TTITLE6=Craver, Hicks, Watson and Newberry - I'm Getting Ready To Go
TTITLE7=Cahalen Morrison and Eli West - Pocket Full Of Dust
TTITLE8=Chatam County Line - The Traveler
TTITLE9=The Barefoot Movement - Lay It All Down On Me
TTITLE10=Lynda Dawson and Pattie Hopkins - Long Time Gone
TTITLE11=Rafe and Clelia Stefanini - Collins Medley #2
TTITLE12=Jon Shain - Ordinary Cats
TTITLE13=Nora Jane Struthers - Baker's Boy
TTITLE14=The South Carolina Broadcasters - Shouting On The Hills Of Gl
TTITLE14=ory
EXTD=
EXTT0=
EXTT1=
EXTT2=
EXTT3=
EXTT4=
EXTT5=
EXTT6=
EXTT7=
EXTT8=
EXTT9=
EXTT10=
EXTT11=
EXTT12=
EXTT13=
EXTT14=
PLAYORDER=
